<?xml version="1.0" encoding="utf-8"?>
<!-- Generator: Adobe Illustrator 23.0.6, SVG Export Plug-In . SVG Version: 6.00 Build 0)  -->
<svg version="1.1" id="Layer_1" xmlns="http://www.w3.org/2000/svg" xmlns:xlink="http://www.w3.org/1999/xlink" x="0px" y="0px"
	 viewBox="0 0 283.5 177" style="enable-background:new 0 0 283.5 177;" xml:space="preserve">
<g>
	<g>
		<path d="M92.8,112.1c-0.4,0-0.8-0.1-1.2-0.3c-1.1-0.7-1.4-2.1-0.7-3.1L115,69.5H92.8c-1.3,0-2.3-1-2.3-2.3c0-1.3,1-2.3,2.3-2.3
			h26.4c1.3,0,2.3,1,2.3,2.3c0,0.5-0.2,1-0.4,1.4l-24.1,39h22.3c1.3,0,2.3,1,2.3,2.3c0,1.3-1,2.3-2.3,2.3H92.8z"/>
		<path d="M62.4,112.1c-6.3,0-12.2-2.5-16.7-6.9c-4.5-4.5-6.9-10.4-6.9-16.7c0-6.3,2.5-12.2,6.9-16.7c4.6-4.5,10.5-6.9,16.7-6.9
			c6.3,0,12.2,2.5,16.7,6.9c4.5,4.5,6.9,10.4,6.9,16.7c0,6.3-2.5,12.2-6.9,16.7C74.5,109.7,68.6,112.1,62.4,112.1z M62.4,69.5
			c-5,0-9.8,1.9-13.4,5.5c-3.7,3.7-5.7,8.5-5.7,13.5c0,5.1,2,9.9,5.6,13.5c3.6,3.6,8.4,5.6,13.5,5.6c5,0,9.8-1.9,13.4-5.5
			c3.7-3.7,5.7-8.5,5.7-13.5c0-5.1-2-9.9-5.6-13.5C72.2,71.5,67.5,69.5,62.4,69.5z"/>
		<path d="M211.4,112.1c-0.4,0-0.8-0.1-1.1-0.3l-0.2-0.2c0,0-0.2-0.2-0.2-0.2c0,0-0.2-0.2-0.2-0.2c0,0-0.2-0.2-0.2-0.2l-0.1-0.2
			c0,0-0.1-0.3-0.1-0.3c0,0-0.1-0.3-0.1-0.3c0-0.5,0-0.7,0.1-1l17.2-42.8c0.3-0.9,1.2-1.4,2.1-1.4c0.3,0,0.6,0.1,0.8,0.2
			c0.6,0.2,1,0.7,1.3,1.3l8.6,21.3l8.5,21.2c0.1,0.3,0.2,0.6,0.2,1c0,1.3-1,2.3-2.3,2.3H211.4z M242.3,107.6l-13.8-34.2l-13.8,34.2
			H242.3z"/>
		<g>
			<path d="M3.8,112.1c-1.3,0-2.3-1-2.3-2.3V94c0-1.3,1-2.3,2.3-2.3c1.3,0,2.3,1,2.3,2.3v15.8C6.1,111.1,5.1,112.1,3.8,112.1z"/>
			<path d="M3.8,86.9c-1.3,0-2.3-1-2.3-2.3V67.2c0-1.3,1-2.3,2.3-2.3h17.6c2.9,0,5.7,1.1,7.8,3.2c2.1,2.1,3.2,4.8,3.2,7.8
				s-1.1,5.7-3.2,7.8c-2.1,2.1-4.8,3.2-7.8,3.2H3.8z M21.4,82.4c1.7,0,3.3-0.7,4.6-1.9c1.2-1.2,1.9-2.8,1.9-4.5
				c0-1.7-0.7-3.3-1.9-4.6c-1.2-1.2-2.8-1.9-4.6-1.9H6.1v12.9H21.4z"/>
		</g>
		<path d="M199.9,112.1c-0.5,0-1-0.2-1.4-0.4l-65.3-40.4v38.5c0,1.3-1,2.3-2.3,2.3c-1.3,0-2.3-1-2.3-2.3c0,0,0-42.7,0-42.7
			c0-0.4,0.1-0.8,0.3-1.1c0.4-0.7,1.1-1.1,1.9-1.1c0.4,0,0.8,0.1,1.2,0.3l65.5,40.5V67.2c0-1.3,1-2.3,2.3-2.3c1.3,0,2.3,1,2.3,2.3
			v42.6C202.2,111.1,201.2,112.1,199.9,112.1z"/>
	</g>
	<g>
		<g>
			<path d="M59.7,150.7c-0.4,0-0.8-0.1-1.2-0.3l-26.4-16.3c-1.1-0.7-1.4-2.1-0.7-3.1c0.4-0.7,1.1-1.1,1.9-1.1c0.4,0,0.8,0.1,1.2,0.3
				l26.3,16.3c1.1,0.7,1.4,2.1,0.7,3.1C61.2,150.3,60.5,150.7,59.7,150.7z"/>
			<path d="M70.9,176.9c-0.5,0-1-0.2-1.4-0.5l-65-40.2v38.4c0,1.3-1,2.3-2.3,2.3c-1.3,0-2.3-1-2.3-2.3c0,0,0-42.5,0-42.5
				c0-0.4,0.1-0.8,0.3-1.1c0.4-0.7,1.1-1.1,1.9-1.1c0.4,0,0.8,0.1,1.2,0.3l65.2,40.3v-38.4c0-1.3,1-2.3,2.3-2.3c1.3,0,2.3,1,2.3,2.3
				v42.4C73.2,175.9,72.2,176.9,70.9,176.9z"/>
		</g>
		<path d="M101.6,177c-3.6,0-7-1.3-9.5-3.6c-2.6-2.4-4.1-5.5-4.1-8.9c0-1.3,1-2.3,2.3-2.3s2.3,1,2.3,2.3c0,2.1,0.9,4,2.6,5.5
			c1.7,1.5,4,2.4,6.5,2.4c2.5,0,4.8-0.9,6.5-2.4c1.6-1.5,2.6-3.4,2.6-5.5c0-1.5-0.5-2.9-1.4-4.2c-0.9-1.3-2.2-2.3-3.8-3
			c0,0-9.5-3.7-9.5-3.7c-0.2-0.1-0.5-0.2-0.7-0.4c-2-0.9-3.8-2.4-5-4.2c-1.5-2-2.2-4.4-2.2-6.8c0-3.4,1.4-6.5,4.1-8.9
			c2.6-2.3,5.9-3.6,9.5-3.6c3.6,0,7,1.3,9.5,3.6c2.6,2.4,4.1,5.5,4.1,8.9c0,1.3-1,2.3-2.3,2.3c-1.3,0-2.3-1-2.3-2.3
			c0-2.1-0.9-4-2.6-5.5c-1.7-1.5-4-2.4-6.5-2.4c-2.5,0-4.7,0.9-6.5,2.4c-1.6,1.5-2.6,3.4-2.6,5.5c0,1.5,0.5,2.9,1.4,4.2
			c0.9,1.3,2.3,2.3,3.9,3c0.2,0.1,0.4,0.2,0.5,0.3l8.7,3.3c2.5,1,4.5,2.6,5.9,4.6c1.5,2,2.2,4.4,2.2,6.8c0,3.4-1.4,6.5-4.1,8.9
			C108.6,175.8,105.2,177,101.6,177z"/>
		<g>
			<path d="M157.3,177c-0.4,0-0.9-0.1-1.3-0.4l-22.8-14.4v12.4c0,1.3-1,2.3-2.3,2.3c-1.3,0-2.3-1-2.3-2.3V158c0-1.3,1-2.3,2.3-2.3
				c0.5,0,1,0.2,1.4,0.5l26.2,16.7c0.5,0.3,0.9,0.9,1,1.5c0.1,0.6,0,1.2-0.3,1.7C158.8,176.7,158.1,177,157.3,177z"/>
			<path d="M131,151c-0.8,0-1.5-0.4-1.9-1c-0.2-0.3-0.4-0.8-0.4-1.2c0,0,0-16.7,0-16.7c0-1.3,1-2.3,2.3-2.3c1.3,0,2.3,1,2.3,2.3
				v12.4l22.8-14.3c0.4-0.2,0.8-0.4,1.2-0.4c0.8,0,1.5,0.4,1.9,1c0.3,0.5,0.4,1.1,0.3,1.7c-0.1,0.6-0.5,1.1-1,1.4l-26.4,16.6
				C131.9,150.9,131.4,151,131,151z"/>
		</g>
		<path d="M166.9,177c-0.4,0-0.8-0.1-1.1-0.3c0,0-0.3-0.2-0.3-0.2c-0.1-0.1-0.5-0.5-0.5-0.6c0,0-0.1-0.2-0.1-0.3
			c0,0-0.1-0.3-0.1-0.3c-0.1-0.5-0.1-1,0.1-1.5l17.1-42.6c0.3-0.9,1.2-1.4,2.1-1.4c0.3,0,0.6,0.1,0.8,0.2c0.6,0.2,1,0.7,1.3,1.3
			l17.1,42.5c0.1,0.3,0.2,0.6,0.2,1c0,1.3-1,2.3-2.3,2.3H166.9z M197.8,172.5l-5.2-13h-17.1l-5.2,13H197.8z M190.8,155l-6.7-16.7
			l-6.7,16.7H190.8z"/>
	</g>
	<g>
		<g>
			<path d="M3.8,21.2c-1.3,0-2.3-1-2.3-2.3V2.3C1.5,1,2.5,0,3.8,0h26.3c1.3,0,2.3,1,2.3,2.3c0,1.3-1,2.3-2.3,2.3H6.1v12.1h24.1
				c1.3,0,2.3,1,2.3,2.3c0,1.3-1,2.3-2.3,2.3H3.8z"/>
			<path d="M3.8,47.2c-1.3,0-2.3-1-2.3-2.3V28.3c0-1.3,1-2.3,2.3-2.3h26.3c1.3,0,2.3,1,2.3,2.3c0,1.3-1,2.3-2.3,2.3H6.1v12.1h24.1
				c1.3,0,2.3,1,2.3,2.3c0,1.3-1,2.3-2.3,2.3H3.8z"/>
		</g>
		<path d="M201.3,47.2c-1.3,0-2.3-1-2.3-2.3V2.3c0-1.3,1-2.3,2.3-2.3h13.2c6.3,0,12.2,2.5,16.7,6.9c4.5,4.5,6.9,10.4,6.9,16.7
			c0,6.3-2.5,12.2-6.9,16.7c-4.5,4.5-10.4,6.9-16.7,6.9H201.3z M214.5,42.6c5.1,0,9.9-2,13.5-5.6c3.6-3.6,5.6-8.4,5.6-13.5
			c0-5.1-2-9.9-5.6-13.5c-3.6-3.6-8.4-5.6-13.5-5.6h-10.9v38.1H214.5z"/>
		<g>
			<path d="M119,22c-1.3,0-2.3-1-2.3-2.3V2.3c0-1.3,1-2.3,2.3-2.3h17.6c2.9,0,5.7,1.1,7.8,3.2c2.1,2.1,3.2,4.8,3.2,7.8
				c0,2.9-1.1,5.6-3.1,7.7c-2.2,2.2-5,3.3-7.9,3.3H119z M136.6,17.5c1.7,0,3.3-0.7,4.6-1.9c1.2-1.3,1.9-2.9,1.9-4.6
				c0-1.7-0.7-3.3-1.9-4.6c-1.2-1.2-2.8-1.9-4.6-1.9h-15.3v12.9H136.6z"/>
			<path d="M119,47.2c-1.3,0-2.3-1-2.3-2.3V28.3c0-1.3,1-2.3,2.3-2.3c0.5,0,1,0.2,1.4,0.5L146.6,43c1.1,0.7,1.3,2.1,0.6,3.2
				c-0.4,0.6-1.1,1-1.9,1c-0.4,0-0.9-0.1-1.3-0.4l-22.8-14.3v12.4C121.2,46.2,120.2,47.2,119,47.2z"/>
		</g>
		<path d="M154.3,47.2c-0.5,0-0.9-0.1-1.3-0.4c-0.9-0.6-1.2-1.7-0.8-2.7l17.2-42.6c0.3-0.9,1.2-1.4,2.1-1.4c0.3,0,0.6,0.1,0.8,0.2
			c0.6,0.2,1,0.7,1.3,1.3l17.1,42.5c0.1,0.3,0.2,0.6,0.2,1c0,1.3-1,2.3-2.3,2.3H154.3z M185.3,42.6L171.5,8.4l-13.8,34.2H185.3z"/>
		<path d="M54.3,47.1c-3.6,0-7-1.3-9.5-3.6c-2.6-2.4-4.1-5.5-4.1-8.9c0-1.3,1-2.3,2.3-2.3c1.3,0,2.3,1,2.3,2.3c0,2.1,0.9,4,2.5,5.5
			c1.7,1.5,4,2.4,6.5,2.4c2.5,0,4.7-0.9,6.5-2.4c1.6-1.5,2.6-3.4,2.6-5.5c0-1.5-0.5-2.9-1.4-4.2c-0.9-1.3-2.3-2.3-3.9-3l-9.4-3.6
			c-0.2-0.1-0.5-0.2-0.6-0.4c-2-0.9-3.8-2.4-5-4.2c-1.5-2-2.2-4.4-2.2-6.8c0-3.4,1.4-6.5,4.1-8.9C47.3,1.3,50.7,0,54.3,0
			c3.6,0,7,1.3,9.5,3.6c2.6,2.4,4.1,5.5,4.1,8.9c0,1.3-1,2.3-2.3,2.3c-1.3,0-2.3-1-2.3-2.3c0-2.1-0.9-4-2.6-5.5
			c-1.7-1.5-4-2.4-6.5-2.4c-2.5,0-4.7,0.9-6.5,2.4c-1.6,1.5-2.5,3.4-2.5,5.5c0,1.5,0.5,2.9,1.4,4.2c0.9,1.3,2.3,2.3,3.9,3
			c0.2,0.1,0.4,0.2,0.5,0.3l8.6,3.3c2.5,1,4.6,2.6,6,4.6c1.5,2,2.2,4.4,2.2,6.8c0,3.4-1.4,6.5-4.1,8.9
			C61.2,45.8,57.8,47.1,54.3,47.1z"/>
		<path d="M246.9,47.2c-0.5,0-0.9-0.1-1.3-0.4c-0.9-0.6-1.2-1.7-0.8-2.7l8.6-21.3l8.6-21.3c0.1-0.3,0.3-0.6,0.6-0.8
			c0.5-0.4,1-0.6,1.5-0.6c1,0,1.9,0.7,2.2,1.7l17,42.2c0.1,0.3,0.2,0.6,0.2,1c0,1.3-1,2.3-2.3,2.3H246.9z M277.8,42.6l-11.5-28.6
			v28.6H277.8z M261.7,42.6V14.1l-11.5,28.6H261.7z"/>
		<g>
			<path d="M91.2,47.2c-1.3,0-2.3-1-2.3-2.3V28.3c0-1.3,1-2.3,2.3-2.3c1.3,0,2.3,1,2.3,2.3v16.6C93.5,46.2,92.5,47.2,91.2,47.2z"/>
			<path d="M91.2,21.2c-1.3,0-2.3-1-2.3-2.3V4.6H78.1c-1.3,0-2.3-1-2.3-2.3c0-1.3,1-2.3,2.3-2.3h26.3c1.3,0,2.3,1,2.3,2.3
				c0,1.3-1,2.3-2.3,2.3H93.5v14.4C93.5,20.2,92.5,21.2,91.2,21.2z"/>
		</g>
	</g>
</g>
</svg>
